<?xml version="1.0"?>
<svg version="1.1" xmlns="http://www.w3.org/2000/svg" width="500" height="200" style=""><path fill="#090e12" d="M49.72,142l7.07,0l-31.29-24.99l31.29-24.08l-7.07,0l-26.88,21.42l0-21.42l-4.41,0l0,49.07l4.41,0l0-21.42z M66.9288,142l4.34,0l0-29.68q0-5.88,4.48-10.5q4.48-4.48,10.36-4.48t10.5,4.48q4.48,4.62,4.48,10.5l0,29.68l4.34,0l0-29.68q0-7.98-5.67-13.65t-13.65-5.67q-7.84,0-13.51,5.67t-5.67,13.65l0,29.68z M134.9576,93q-7.91,0-13.58,5.67q-5.74,5.74-5.74,13.65l0,10.57q0,7.77,5.74,13.51t13.58,5.74q7.91,0,13.65-5.74q5.67-5.67,5.67-13.51l0-10.57q0-7.98-5.67-13.65t-13.65-5.67z M149.9376,112.32l0,10.57q0,6.37-4.48,10.71q-4.41,4.2-10.5,4.2t-10.43-4.2q-4.48-4.34-4.48-10.71l0-10.57q0-5.88,4.48-10.5q4.48-4.48,10.43-4.48q5.88,0,10.5,4.48q4.48,4.62,4.48,10.5z M187.0264,117.57l16.66-24.64l-5.32,0l-14,21l-14.84-21l-4.48,0l16.66,24.64l-17.5,24.5l5.32,0l14.84-21l14,21l4.48,0z"/><path fill="#202226" d="M218.90693828125,84.76806640625q0-2.9052734375,0.99609375-3.9013671875t2.78076171875-0.99609375q0.498046875,0,1.058349609375,0.0830078125t1.058349609375,0.2490234375q2.78076171875-0.53955078125,5.27099609375-0.53955078125q4.02587890625,0,7.3046875,1.4111328125q5.27099609375,2.2412109375,8.7158203125,6.640625t5.0634765625,10.33447265625t1.61865234375,12.16064453125q0,3.486328125-0.477294921875,7.26318359375t-1.846923828125,7.01416015625q-1.20361328125,2.9052734375-3.3203125,6.080322265625t-4.793701171875,6.01806640625t-5.76904296875,4.98046875t-6.246337890625,2.884521484375l0,0.33203125q0,0.830078125-0.435791015625,1.348876953125t-1.058349609375,0.78857421875t-1.431884765625,0.352783203125t-1.514892578125,0.0830078125q-0.4150390625,0-1.182861328125-0.0830078125t-1.494140625-0.311279296875t-1.224365234375-0.601806640625t-0.498046875-1.03759765625q0-7.5537109375-0.394287109375-15.128173828125t-0.892333984375-15.14892578125t-0.892333984375-15.128173828125t-0.394287109375-15.14892578125z M226.7511765625,82.6513671875q0.4150390625,3.984375,0.53955078125,7.947998046875t0.37353515625,7.947998046875q0.6640625,10.29296875,1.53564453125,20.482177734375t1.03759765625,20.482177734375q3.984375-2.61474609375,6.827392578125-5.9765625t4.669189453125-7.3046875t2.677001953125-8.280029296875t0.850830078125-8.944091796875q0-3.3203125-0.5810546875-7.3046875t-1.9921875-7.67822265625t-3.797607421875-6.68212890625t-5.955810546875-4.27490234375q-0.7470703125-0.2490234375-1.805419921875-0.4150390625t-3.382568359375-0.166015625q-0.2490234375,0-0.498046875,0.0830078125t-0.498046875,0.0830078125z M261.22722636719,115.39794921875q0-1.70166015625,0.601806640625-2.86376953125t2.552490234375-1.162109375q0.7470703125,0,1.86767578125,0.228271484375t1.28662109375,1.141357421875q0.4150390625,2.44873046875,0.45654296875,5.3125t0.29052734375,5.3955078125q0.95458984375-1.86767578125,2.44873046875-4.02587890625t3.4033203125-3.984375t4.150390625-3.02978515625t4.5654296875-1.20361328125q0.166015625,0,0.62255859375,0.12451171875t0.850830078125,0.352783203125t0.477294921875,0.518798828125t-0.45654296875,0.53955078125q-0.166015625,0.498046875-0.70556640625,0.601806640625t-0.95458984375,0.103759765625q-0.2490234375,0-0.78857421875-0.20751953125q-3.0712890625,1.61865234375-5.2294921875,4.3994140625t-3.52783203125,6.163330078125t-1.9921875,7.138671875t-0.62255859375,7.325439453125q0,1.78466796875-0.809326171875,2.158203125t-2.593994140625,0.37353515625q-0.95458984375,0-2.012939453125-0.20751953125t-1.473388671875-1.328125q-0.7470703125-2.36572265625-1.224365234375-5.43701171875t-0.726318359375-6.329345703125t-0.352783203125-6.412353515625t-0.103759765625-5.68603515625z M290.72280742188,126.02294921875q0-3.818359375,0.892333984375-7.491455078125t1.514892578125-7.325439453125q0.166015625-0.95458984375,1.307373046875-1.182861328125t1.929931640625-0.228271484375q1.36962890625,0,2.19970703125,0.4150390625q0.33203125,0.166015625,0.62255859375,0.37353515625t0.29052734375,0.53955078125q0,3.5693359375-0.850830078125,6.97265625t-0.850830078125,7.2216796875q0,1.28662109375,0.186767578125,2.427978515625t0.352783203125,2.261962890625l0.2490234375,1.20361328125q0,0.33203125,0.04150390625,0.5810546875t0.12451171875,0.5810546875q0,0.7470703125-1.058349609375,1.016845703125t-1.846923828125,0.269775390625q-1.20361328125,0-2.220458984375-0.477294921875t-1.597900390625-1.639404296875l-0.5810546875-1.20361328125q-0.498046875-0.95458984375-0.498046875-2.137451171875t-0.20751953125-2.178955078125z M293.37905742188,101.03759765625l0-0.78857421875q0-1.95068359375,0.975341796875-3.486328125t2.926025390625-1.53564453125q0.2490234375,0,0.477294921875,0.04150390625t0.477294921875,0.04150390625q0.498046875,0.0830078125,1.307373046875,0.394287109375t0.809326171875,0.975341796875l0,0.0830078125q-0.166015625,0.33203125-0.20751953125,0.684814453125t-0.20751953125,0.601806640625l0.0830078125-0.0830078125q-0.498046875,1.28662109375-0.809326171875,2.0751953125t-0.684814453125,1.265869140625t-0.933837890625,0.684814453125t-1.597900390625,0.20751953125q-0.166015625,0-0.5810546875-0.04150390625t-0.892333984375-0.166015625t-0.809326171875-0.33203125t-0.33203125-0.62255859375z M307.14465800781,111.57958984375q0-0.33203125,0.394287109375-0.601806640625t0.892333984375-0.394287109375t1.016845703125-0.166015625t0.767822265625-0.04150390625q1.86767578125,0,3.19580078125,1.66015625t2.303466796875,4.254150390625t1.66015625,5.7275390625t1.307373046875,6.246337890625t1.224365234375,5.706787109375t1.348876953125,4.005126953125q1.28662109375-2.53173828125,2.344970703125-6.10107421875t1.95068359375-7.3876953125t1.5771484375-7.532958984375t1.099853515625-6.495361328125q0.166015625-0.7470703125,1.03759765625-0.933837890625t1.45263671875-0.186767578125q0.95458984375,0,1.66015625,0.269775390625t0.70556640625,1.182861328125q0,1.53564453125-0.37353515625,4.171142578125t-1.016845703125,5.914306640625t-1.494140625,6.7236328125t-1.826171875,6.536865234375t-2.03369140625,5.478515625t-2.095947265625,3.382568359375q-0.498046875,0.5810546875-1.556396484375,0.809326171875t-1.763916015625,0.228271484375q-2.44873046875,0-4.0673828125-1.28662109375l0,0.0830078125q-2.53173828125-2.36572265625-3.7353515625-5.76904296875t-1.7431640625-7.09716796875t-0.975341796875-7.34619140625t-1.473388671875-6.640625q-0.166015625-0.33203125-0.4150390625-0.975341796875t-0.5810546875-1.28662109375t-0.560302734375-1.224365234375t-0.228271484375-0.9130859375z M339.87754375,128.720703125q0-2.9052734375,0.643310546875-6.84814453125t2.178955078125-7.470703125t4.046630859375-5.997314453125t6.329345703125-2.469482421875q3.5693359375,0,5.35400390625,2.054443359375t1.78466796875,5.540771484375q0,2.28271484375-0.850830078125,5.001220703125t-2.427978515625,5.146484375t-3.7353515625,4.046630859375t-4.814453125,1.61865234375l-1.0791015625-0.0830078125q0,1.12060546875,0.33203125,3.009033203125t0.975341796875,3.756103515625t1.66015625,3.27880859375t2.469482421875,1.4111328125q2.11669921875,0,4.0673828125-1.70166015625t3.69384765625-3.77685546875t3.2373046875-3.77685546875t2.7392578125-1.70166015625q0.6640625,0,1.36962890625,0.20751953125t0.78857421875,1.162109375q0,0.5810546875-0.311279296875,0.95458984375t-0.560302734375,0.830078125q-1.28662109375,2.19970703125-2.801513671875,4.19189453125t-3.424072265625,3.61083984375t-4.171142578125,2.552490234375t-5.001220703125,0.933837890625q-3.5693359375,0-5.93505859375-1.265869140625t-3.818359375-3.4033203125t-2.095947265625-4.93896484375t-0.643310546875-5.872802734375z M347.30674296875,125.56640625l1.162109375,1.03759765625q0.830078125,0.7470703125,1.66015625,0.33203125t1.494140625-1.514892578125t1.224365234375-2.718505859375t0.99609375-3.3203125t0.643310546875-3.3203125t0.20751953125-2.69775390625l0-1.4111328125t-0.12451171875-1.494140625t-0.435791015625-1.182861328125t-0.975341796875-0.601806640625q-0.20751953125-0.04150390625-0.37353515625-0.04150390625q-1.4111328125,0-2.4072265625,1.78466796875q-1.0791015625,1.9921875-1.7431640625,4.835205078125t-0.95458984375,5.831298828125t-0.37353515625,4.482421875z M389.90386210938,104.2333984375l0.2490234375-0.498046875q0.6640625-0.5810546875,2.03369140625-1.7431640625t2.98828125-2.635498046875t3.36181640625-3.092041015625t3.133544921875-3.154296875t2.28271484375-2.884521484375t0.892333984375-2.303466796875q0-0.498046875,0.477294921875-0.892333984375t1.0791015625-0.643310546875t1.224365234375-0.33203125t1.0791015625-0.0830078125q0.95458984375,0,2.178955078125,0.29052734375t1.639404296875,1.4111328125q-0.95458984375,8.25927734375-1.763916015625,16.207275390625t-0.809326171875,16.165771484375q0,5.60302734375,0.684814453125,11.185302734375t0.684814453125,11.019287109375q0,0.6640625-0.601806640625,1.058349609375t-1.348876953125,0.601806640625t-1.556396484375,0.29052734375t-1.265869140625,0.0830078125q-1.95068359375,0-2.884521484375-0.684814453125t-1.307373046875-1.7431640625t-0.37353515625-2.4072265625t-0.0830078125-2.801513671875q-0.166015625-2.98828125-0.311279296875-5.914306640625t-0.145263671875-5.914306640625q0-6.806640625,0.352783203125-13.551025390625t1.431884765625-13.468017578125q-0.95458984375,0.95458984375-2.261962890625,2.220458984375t-2.822265625,2.44873046875t-3.092041015625,1.9921875t-2.94677734375,0.809326171875q-0.4150390625,0-1.265869140625-0.166015625t-0.933837890625-0.87158203125z M421.88967753906,140.13427734375q0-1.03759765625,0.12451171875-2.095947265625t0.12451171875-2.095947265625l0-0.6640625q0-1.28662109375,1.058349609375-1.61865234375t2.178955078125-0.33203125q1.28662109375,0,2.469482421875,0.53955078125t1.182861328125,2.0751953125q0.2490234375,0.7470703125,0.2490234375,1.78466796875l0,1.95068359375q0,1.45263671875-1.016845703125,2.012939453125t-2.718505859375,0.560302734375q-1.20361328125,0-2.427978515625-0.435791015625t-1.224365234375-1.680908203125z M438.7265671875,109.8779296875q0-3.818359375,0.394287109375-8.072509765625t1.888427734375-7.864990234375t4.337158203125-5.997314453125t7.781982421875-2.386474609375q1.70166015625,0,3.65234375,0.53955078125t2.69775390625,2.2412109375q3.9013671875,0.95458984375,6.370849609375,3.548583984375t3.839111328125,5.997314453125t1.826171875,7.2216796875t0.45654296875,7.2216796875q0,2.44873046875-0.29052734375,5.68603515625t-0.975341796875,6.5576171875t-1.9091796875,6.495361328125t-3.009033203125,5.68603515625t-4.295654296875,4.046630859375t-5.831298828125,1.53564453125q-3.65234375,0-6.370849609375-1.66015625t-4.586181640625-4.337158203125t-3.02978515625-6.163330078125t-1.826171875-7.09716796875t-0.892333984375-7.0556640625t-0.228271484375-6.142578125z M446.23877421875,107.3046875q0,5.43701171875,0.6640625,11.268310546875t2.65625,10.936279296875q1.03759765625-5.02197265625,2.261962890625-9.75341796875t2.44873046875-9.317626953125t2.4072265625-9.130859375t2.137451171875-9.110107421875l-0.33203125-0.20751953125q-0.830078125,0.166015625-2.03369140625,0.04150390625t-1.36962890625-1.20361328125q-0.6640625-0.0830078125-1.45263671875-0.518798828125t-0.33203125-2.054443359375q-1.61865234375,0-2.78076171875,1.12060546875t-1.9091796875,2.86376953125t-1.224365234375,3.9013671875t-0.726318359375,4.27490234375t-0.33203125,3.94287109375t-0.0830078125,2.94677734375z M452.7548875,135.9423828125q0.2490234375,0.4150390625,0.601806640625,0.892333984375t0.726318359375,0.9130859375t0.809326171875,0.726318359375t0.933837890625,0.20751953125q2.19970703125-0.33203125,3.77685546875-1.9091796875t2.635498046875-3.963623046875t1.66015625-5.3125t0.892333984375-5.8935546875t0.37353515625-5.748291015625t0.0830078125-4.814453125q0-3.818359375-0.62255859375-7.5537109375t-2.4072265625-7.0556640625q-2.44873046875,9.8779296875-4.461669921875,19.942626953125t-5.001220703125,19.569091796875z"/></svg>
