<?xml version="1.0"?>
<svg version="1.1" xmlns="http://www.w3.org/2000/svg" width="650" height="300" style=""><path fill="#090e12" d="M59.64,204l9.09,0l-40.23-32.13l40.23-30.96l-9.09,0l-34.56,27.54l0-27.54l-5.67,0l0,63.09l5.67,0l0-27.54z M81.7656,204l5.58,0l0-38.16q0-7.56,5.76-13.5q5.76-5.76,13.32-5.76t13.5,5.76q5.76,5.94,5.76,13.5l0,38.16l5.58,0l0-38.16q0-10.26-7.29-17.55t-17.55-7.29q-10.08,0-17.37,7.29t-7.29,17.55l0,38.16z M169.2312,141q-10.17,0-17.46,7.29q-7.38,7.38-7.38,17.55l0,13.59q0,9.99,7.38,17.37t17.46,7.38q10.17,0,17.55-7.38q7.29-7.29,7.29-17.37l0-13.59q0-10.26-7.29-17.55t-17.55-7.29z M188.4912,165.84l0,13.59q0,8.19-5.76,13.77q-5.67,5.4-13.5,5.4t-13.41-5.4q-5.76-5.58-5.76-13.77l0-13.59q0-7.56,5.76-13.5q5.76-5.76,13.41-5.76q7.56,0,13.5,5.76q5.76,5.94,5.76,13.5z M236.1768,172.59l21.42-31.68l-6.84,0l-18,27l-19.08-27l-5.76,0l21.42,31.68l-22.5,31.5l6.84,0l19.08-27l18,27l5.76,0z"/><path fill="#202226" d="M275.460915625,132.080078125q0-3.41796875,1.171875-4.58984375t3.271484375-1.171875q0.5859375,0,1.2451171875,0.09765625t1.2451171875,0.29296875q3.271484375-0.634765625,6.201171875-0.634765625q4.736328125,0,8.59375,1.66015625q6.201171875,2.63671875,10.25390625,7.8125t5.95703125,12.158203125t1.904296875,14.306640625q0,4.1015625-0.5615234375,8.544921875t-2.1728515625,8.251953125q-1.416015625,3.41796875-3.90625,7.1533203125t-5.6396484375,7.080078125t-6.787109375,5.859375t-7.3486328125,3.3935546875l0,0.390625q0,0.9765625-0.5126953125,1.5869140625t-1.2451171875,0.927734375t-1.6845703125,0.4150390625t-1.7822265625,0.09765625q-0.48828125,0-1.3916015625-0.09765625t-1.7578125-0.3662109375t-1.4404296875-0.7080078125t-0.5859375-1.220703125q0-8.88671875-0.4638671875-17.7978515625t-1.0498046875-17.822265625t-1.0498046875-17.7978515625t-0.4638671875-17.822265625z M284.68943125,129.58984375q0.48828125,4.6875,0.634765625,9.3505859375t0.439453125,9.3505859375q0.78125,12.109375,1.806640625,24.0966796875t1.220703125,24.0966796875q4.6875-3.076171875,8.0322265625-7.03125t5.4931640625-8.59375t3.1494140625-9.7412109375t1.0009765625-10.5224609375q0-3.90625-0.68359375-8.59375t-2.34375-9.033203125t-4.4677734375-7.861328125t-7.0068359375-5.029296875q-0.87890625-0.29296875-2.1240234375-0.48828125t-3.9794921875-0.1953125q-0.29296875,0-0.5859375,0.09765625t-0.5859375,0.09765625z M325.24948984375,168.115234375q0-2.001953125,0.7080078125-3.369140625t3.0029296875-1.3671875q0.87890625,0,2.197265625,0.2685546875t1.513671875,1.3427734375q0.48828125,2.880859375,0.537109375,6.25t0.341796875,6.34765625q1.123046875-2.197265625,2.880859375-4.736328125t4.00390625-4.6875t4.8828125-3.564453125t5.37109375-1.416015625q0.1953125,0,0.732421875,0.146484375t1.0009765625,0.4150390625t0.5615234375,0.6103515625t-0.537109375,0.634765625q-0.1953125,0.5859375-0.830078125,0.7080078125t-1.123046875,0.1220703125q-0.29296875,0-0.927734375-0.244140625q-3.61328125,1.904296875-6.15234375,5.17578125t-4.150390625,7.2509765625t-2.34375,8.3984375t-0.732421875,8.6181640625q0,2.099609375-0.9521484375,2.5390625t-3.0517578125,0.439453125q-1.123046875,0-2.3681640625-0.244140625t-1.7333984375-1.5625q-0.87890625-2.783203125-1.4404296875-6.396484375t-0.8544921875-7.4462890625t-0.4150390625-7.5439453125t-0.1220703125-6.689453125z M359.9501734375,180.615234375q0-4.4921875,1.0498046875-8.8134765625t1.7822265625-8.6181640625q0.1953125-1.123046875,1.5380859375-1.3916015625t2.2705078125-0.2685546875q1.611328125,0,2.587890625,0.48828125q0.390625,0.1953125,0.732421875,0.439453125t0.341796875,0.634765625q0,4.19921875-1.0009765625,8.203125t-1.0009765625,8.49609375q0,1.513671875,0.2197265625,2.8564453125t0.4150390625,2.6611328125l0.29296875,1.416015625q0,0.390625,0.048828125,0.68359375t0.146484375,0.68359375q0,0.87890625-1.2451171875,1.1962890625t-2.1728515625,0.3173828125q-1.416015625,0-2.6123046875-0.5615234375t-1.8798828125-1.9287109375l-0.68359375-1.416015625q-0.5859375-1.123046875-0.5859375-2.5146484375t-0.244140625-2.5634765625z M363.0751734375,151.220703125l0-0.927734375q0-2.294921875,1.1474609375-4.1015625t3.4423828125-1.806640625q0.29296875,0,0.5615234375,0.048828125t0.5615234375,0.048828125q0.5859375,0.09765625,1.5380859375,0.4638671875t0.9521484375,1.1474609375l0,0.09765625q-0.1953125,0.390625-0.244140625,0.8056640625t-0.244140625,0.7080078125l0.09765625-0.09765625q-0.5859375,1.513671875-0.9521484375,2.44140625t-0.8056640625,1.4892578125t-1.0986328125,0.8056640625t-1.8798828125,0.244140625q-0.1953125,0-0.68359375-0.048828125t-1.0498046875-0.1953125t-0.9521484375-0.390625t-0.390625-0.732421875z M379.26999765625,163.623046875q0-0.390625,0.4638671875-0.7080078125t1.0498046875-0.4638671875t1.1962890625-0.1953125t0.9033203125-0.048828125q2.197265625,0,3.759765625,1.953125t2.7099609375,5.0048828125t1.953125,6.73828125t1.5380859375,7.3486328125t1.4404296875,6.7138671875t1.5869140625,4.7119140625q1.513671875-2.978515625,2.7587890625-7.177734375t2.294921875-8.69140625t1.85546875-8.8623046875t1.2939453125-7.6416015625q0.1953125-0.87890625,1.220703125-1.0986328125t1.708984375-0.2197265625q1.123046875,0,1.953125,0.3173828125t0.830078125,1.3916015625q0,1.806640625-0.439453125,4.9072265625t-1.1962890625,6.9580078125t-1.7578125,7.91015625t-2.1484375,7.6904296875t-2.392578125,6.4453125t-2.4658203125,3.9794921875q-0.5859375,0.68359375-1.8310546875,0.9521484375t-2.0751953125,0.2685546875q-2.880859375,0-4.78515625-1.513671875l0,0.09765625q-2.978515625-2.783203125-4.39453125-6.787109375t-2.05078125-8.349609375t-1.1474609375-8.642578125t-1.7333984375-7.8125q-0.1953125-0.390625-0.48828125-1.1474609375t-0.68359375-1.513671875t-0.6591796875-1.4404296875t-0.2685546875-1.07421875z M417.779275,183.7890625q0-3.41796875,0.7568359375-8.056640625t2.5634765625-8.7890625t4.7607421875-7.0556640625t7.4462890625-2.9052734375q4.19921875,0,6.298828125,2.4169921875t2.099609375,6.5185546875q0,2.685546875-1.0009765625,5.8837890625t-2.8564453125,6.0546875t-4.39453125,4.7607421875t-5.6640625,1.904296875l-1.26953125-0.09765625q0,1.318359375,0.390625,3.5400390625t1.1474609375,4.4189453125t1.953125,3.857421875t2.9052734375,1.66015625q2.490234375,0,4.78515625-2.001953125t4.345703125-4.443359375t3.80859375-4.443359375t3.22265625-2.001953125q0.78125,0,1.611328125,0.244140625t0.927734375,1.3671875q0,0.68359375-0.3662109375,1.123046875t-0.6591796875,0.9765625q-1.513671875,2.587890625-3.2958984375,4.931640625t-4.0283203125,4.248046875t-4.9072265625,3.0029296875t-5.8837890625,1.0986328125q-4.19921875,0-6.982421875-1.4892578125t-4.4921875-4.00390625t-2.4658203125-5.810546875t-0.7568359375-6.9091796875z M426.519509375,180.078125l1.3671875,1.220703125q0.9765625,0.87890625,1.953125,0.390625t1.7578125-1.7822265625t1.4404296875-3.1982421875t1.171875-3.90625t0.7568359375-3.90625t0.244140625-3.173828125l0-1.66015625t-0.146484375-1.7578125t-0.5126953125-1.3916015625t-1.1474609375-0.7080078125q-0.244140625-0.048828125-0.439453125-0.048828125q-1.66015625,0-2.83203125,2.099609375q-1.26953125,2.34375-2.05078125,5.6884765625t-1.123046875,6.8603515625t-0.439453125,5.2734375z M476.6337671875,154.98046875l0.29296875-0.5859375q0.78125-0.68359375,2.392578125-2.05078125t3.515625-3.1005859375t3.955078125-3.6376953125t3.6865234375-3.7109375t2.685546875-3.3935546875t1.0498046875-2.7099609375q0-0.5859375,0.5615234375-1.0498046875t1.26953125-0.7568359375t1.4404296875-0.390625t1.26953125-0.09765625q1.123046875,0,2.5634765625,0.341796875t1.9287109375,1.66015625q-1.123046875,9.716796875-2.0751953125,19.0673828125t-0.9521484375,19.0185546875q0,6.591796875,0.8056640625,13.1591796875t0.8056640625,12.9638671875q0,0.78125-0.7080078125,1.2451171875t-1.5869140625,0.7080078125t-1.8310546875,0.341796875t-1.4892578125,0.09765625q-2.294921875,0-3.3935546875-0.8056640625t-1.5380859375-2.05078125t-0.439453125-2.83203125t-0.09765625-3.2958984375q-0.1953125-3.515625-0.3662109375-6.9580078125t-0.1708984375-6.9580078125q0-8.0078125,0.4150390625-15.9423828125t1.6845703125-15.8447265625q-1.123046875,1.123046875-2.6611328125,2.6123046875t-3.3203125,2.880859375t-3.6376953125,2.34375t-3.466796875,0.9521484375q-0.48828125,0-1.4892578125-0.1953125t-1.0986328125-1.025390625z M514.26413828125,197.216796875q0-1.220703125,0.146484375-2.4658203125t0.146484375-2.4658203125l0-0.78125q0-1.513671875,1.2451171875-1.904296875t2.5634765625-0.390625q1.513671875,0,2.9052734375,0.634765625t1.3916015625,2.44140625q0.29296875,0.87890625,0.29296875,2.099609375l0,2.294921875q0,1.708984375-1.1962890625,2.3681640625t-3.1982421875,0.6591796875q-1.416015625,0-2.8564453125-0.5126953125t-1.4404296875-1.9775390625z M534.07224375,161.62109375q0-4.4921875,0.4638671875-9.4970703125t2.2216796875-9.2529296875t5.1025390625-7.0556640625t9.1552734375-2.8076171875q2.001953125,0,4.296875,0.634765625t3.173828125,2.63671875q4.58984375,1.123046875,7.4951171875,4.1748046875t4.5166015625,7.0556640625t2.1484375,8.49609375t0.537109375,8.49609375q0,2.880859375-0.341796875,6.689453125t-1.1474609375,7.71484375t-2.24609375,7.6416015625t-3.5400390625,6.689453125t-5.0537109375,4.7607421875t-6.8603515625,1.806640625q-4.296875,0-7.4951171875-1.953125t-5.3955078125-5.1025390625t-3.564453125-7.2509765625t-2.1484375-8.349609375t-1.0498046875-8.30078125t-0.2685546875-7.2265625z M542.910134375,158.59375q0,6.396484375,0.78125,13.2568359375t3.125,12.8662109375q1.220703125-5.908203125,2.6611328125-11.474609375t2.880859375-10.9619140625t2.83203125-10.7421875t2.5146484375-10.7177734375l-0.390625-0.244140625q-0.9765625,0.1953125-2.392578125,0.048828125t-1.611328125-1.416015625q-0.78125-0.09765625-1.708984375-0.6103515625t-0.390625-2.4169921875q-1.904296875,0-3.271484375,1.318359375t-2.24609375,3.369140625t-1.4404296875,4.58984375t-0.8544921875,5.029296875t-0.390625,4.638671875t-0.09765625,3.466796875z M550.57615,192.28515625q0.29296875,0.48828125,0.7080078125,1.0498046875t0.8544921875,1.07421875t0.9521484375,0.8544921875t1.0986328125,0.244140625q2.587890625-0.390625,4.443359375-2.24609375t3.1005859375-4.6630859375t1.953125-6.25t1.0498046875-6.93359375t0.439453125-6.7626953125t0.09765625-5.6640625q0-4.4921875-0.732421875-8.88671875t-2.83203125-8.30078125q-2.880859375,11.62109375-5.2490234375,23.4619140625t-5.8837890625,23.0224609375z"/></svg>
