<?xml version="1.0"?>
<svg version="1.1" xmlns="http://www.w3.org/2000/svg" width="156" height="42" style="border: dashed 2px #aaa"><path fill="#ffffff" d="M29.88,39l3.03,0l-13.41-10.71l13.41-10.32l-3.03,0l-11.52,9.18l0-9.18l-1.89,0l0,21.03l1.89,0l0-9.18z M37.2552,39l1.86,0l0-12.72q0-2.52,1.92-4.5q1.92-1.92,4.44-1.92t4.5,1.92q1.92,1.98,1.92,4.5l0,12.72l1.86,0l0-12.72q0-3.42-2.43-5.85t-5.85-2.43q-3.36,0-5.79,2.43t-2.43,5.85l0,12.72z M66.4104,18q-3.39,0-5.82,2.43q-2.46,2.46-2.46,5.85l0,4.53q0,3.33,2.46,5.79t5.82,2.46q3.39,0,5.85-2.46q2.43-2.43,2.43-5.79l0-4.53q0-3.42-2.43-5.85t-5.85-2.43z M72.8304,26.28l0,4.53q0,2.73-1.92,4.59q-1.89,1.8-4.5,1.8t-4.47-1.8q-1.92-1.86-1.92-4.59l0-4.53q0-2.52,1.92-4.5q1.92-1.92,4.47-1.92q2.52,0,4.5,1.92q1.92,1.98,1.92,4.5z M88.7256,28.53l7.14-10.56l-2.28,0l-6,9l-6.36-9l-1.92,0l7.14,10.56l-7.5,10.5l2.28,0l6.36-9l6,9l1.92,0z"/><path fill="#ffffff" d="M109.5608,18.98l-3.06,0l-0.76,0l-0.5,0l0,14.02l0.5,0l0.76,0l3.06,0q2.92,0,5-2.04q2.14-2.1,2.14-5.1q0-2.84-2.14-4.88q-2.1-2-5-2z M109.5608,31.74l-3.06,0l0-11.46l3.06,0q2.5,0,4.2,1.64q1.68,1.64,1.68,3.94q0,2.5-1.68,4.18q-1.7,1.7-4.2,1.7z M125.7576,25.98l1.5,0q1.52,0,2.52-1t1-2.52q0-1.34-1-2.4q-1.06-1.1-2.52-1.1l-6.26,0l-1.24,0l0,14.04l1.24,0l0-7.02l3.26,0l4.26,7.02l1.5,0z M120.9976,24.74l0-4.52l6.26,0q0.92,0,1.62,0.66q0.66,0.66,0.66,1.58q0,0.96-0.66,1.62q-0.7,0.66-1.62,0.66l-6.26,0z M133.7744,33.02l1.26,0l0-14.06l-1.26,0l0,14.06z M148.7312,18.92l-1.52,0l-4.26,10.58l-4.02-10.58l-1.26,0l5.28,14.08z M152.468,29.16q0-0.96,0.68-1.74q0.68-0.82,1.64-0.82l0.26,0l3.74,0l0-1.24l-3.74,0l-0.26,0q-1.02-0.2-1.67-0.88t-0.65-1.62q0-1.18,0.69-1.87t1.89-0.69l6.8,0l0-1.26l-6.8,0q-1.54,0-2.68,1.14q-1.14,1.1-1.14,2.68q0,1,0.38,1.82t1.12,1.18q-0.74,0.54-1.12,1.42t-0.38,1.88q0,1.56,1.14,2.66q1.16,1.16,2.68,1.16l6.8,0l0-1.32l-6.8,0q-1.2,0-1.89-0.68t-0.69-1.82z M170.9416,33l1.26,0l0-14.06l-1.26,0l0,14.06z M177.4984,31.88q0-0.64-0.39-1.03t-1.03-0.39q-0.44,0-0.78,0.4t-0.34,1.02q0,0.42,0.35,0.77t0.77,0.35q0.62,0,1.02-0.34t0.4-0.78z M185.7752,19q-2.26,0-3.88,1.62q-1.64,1.64-1.64,3.9l0,3.02q0,2.22,1.64,3.86t3.88,1.64q2.26,0,3.9-1.64q1.62-1.62,1.62-3.86l0-3.02q0-2.28-1.62-3.9t-3.9-1.62z M190.0552,24.52l0,3.02q0,1.82-1.28,3.06q-1.26,1.2-3,1.2t-2.98-1.2q-1.28-1.24-1.28-3.06l0-3.02q0-1.68,1.28-3q1.28-1.28,2.98-1.28q1.68,0,3,1.28q1.28,1.32,1.28,3z"/></svg>
