<?xml version="1.0"?>
<svg version="1.1" xmlns="http://www.w3.org/2000/svg" width="500" height="300" style=""><path fill="#ffffff" d="M49.72,192l7.07,0l-31.29-24.99l31.29-24.08l-7.07,0l-26.88,21.42l0-21.42l-4.41,0l0,49.07l4.41,0l0-21.42z M66.9288,192l4.34,0l0-29.68q0-5.88,4.48-10.5q4.48-4.48,10.36-4.48t10.5,4.48q4.48,4.62,4.48,10.5l0,29.68l4.34,0l0-29.68q0-7.98-5.67-13.65t-13.65-5.67q-7.84,0-13.51,5.67t-5.67,13.65l0,29.68z M134.9576,143q-7.91,0-13.58,5.67q-5.74,5.74-5.74,13.65l0,10.57q0,7.77,5.74,13.51t13.58,5.74q7.91,0,13.65-5.74q5.67-5.67,5.67-13.51l0-10.57q0-7.98-5.67-13.65t-13.65-5.67z M149.9376,162.32l0,10.57q0,6.37-4.48,10.71q-4.41,4.2-10.5,4.2t-10.43-4.2q-4.48-4.34-4.48-10.71l0-10.57q0-5.88,4.48-10.5q4.48-4.48,10.43-4.48q5.88,0,10.5,4.48q4.48,4.62,4.48,10.5z M187.0264,167.57l16.66-24.64l-5.32,0l-14,21l-14.84-21l-4.48,0l16.66,24.64l-17.5,24.5l5.32,0l14.84-21l14,21l4.48,0z"/><path fill="#ffffff" d="M219.14521953125,133.33447265625q0-3.1787109375,1.08984375-4.2685546875t3.04248046875-1.08984375q0.544921875,0,1.157958984375,0.0908203125t1.157958984375,0.2724609375q3.04248046875-0.59033203125,5.76708984375-0.59033203125q4.40478515625,0,7.9921875,1.5439453125q5.76708984375,2.4521484375,9.5361328125,7.265625t5.5400390625,11.30712890625t1.77099609375,13.30517578125q0,3.814453125-0.522216796875,7.94677734375t-2.020751953125,7.67431640625q-1.31689453125,3.1787109375-3.6328125,6.652587890625t-5.244873046875,6.58447265625t-6.31201171875,5.44921875t-6.834228515625,3.156005859375l0,0.36328125q0,0.908203125-0.476806640625,1.475830078125t-1.157958984375,0.86279296875t-1.566650390625,0.385986328125t-1.657470703125,0.0908203125q-0.4541015625,0-1.294189453125-0.0908203125t-1.634765625-0.340576171875t-1.339599609375-0.658447265625t-0.544921875-1.13525390625q0-8.2646484375-0.431396484375-16.552001953125t-0.976318359375-16.57470703125t-0.976318359375-16.552001953125t-0.431396484375-16.57470703125z M227.7277390625,131.0185546875q0.4541015625,4.359375,0.59033203125,8.696044921875t0.40869140625,8.696044921875q0.7265625,11.26171875,1.68017578125,22.409912109375t1.13525390625,22.409912109375q4.359375-2.86083984375,7.469970703125-6.5390625t5.108642578125-7.9921875t2.928955078125-9.059326171875t0.930908203125-9.785888671875q0-3.6328125-0.6357421875-7.9921875t-2.1796875-8.40087890625t-4.155029296875-7.31103515625t-6.516357421875-4.67724609375q-0.8173828125-0.2724609375-1.975341796875-0.4541015625t-3.700927734375-0.181640625q-0.2724609375,0-0.544921875,0.0908203125t-0.544921875,0.0908203125z M265.44859355469,166.84716796875q0-1.86181640625,0.658447265625-3.13330078125t2.792724609375-1.271484375q0.8173828125,0,2.04345703125,0.249755859375t1.40771484375,1.248779296875q0.4541015625,2.67919921875,0.49951171875,5.8125t0.31787109375,5.9033203125q1.04443359375-2.04345703125,2.67919921875-4.40478515625t3.7236328125-4.359375t4.541015625-3.31494140625t4.9951171875-1.31689453125q0.181640625,0,0.68115234375,0.13623046875t0.930908203125,0.385986328125t0.522216796875,0.567626953125t-0.49951171875,0.59033203125q-0.181640625,0.544921875-0.77197265625,0.658447265625t-1.04443359375,0.113525390625q-0.2724609375,0-0.86279296875-0.22705078125q-3.3603515625,1.77099609375-5.7216796875,4.8134765625t-3.85986328125,6.743408203125t-2.1796875,7.810546875t-0.68115234375,8.014892578125q0,1.95263671875-0.885498046875,2.361328125t-2.838134765625,0.40869140625q-1.04443359375,0-2.202392578125-0.22705078125t-1.612060546875-1.453125q-0.8173828125-2.58837890625-1.339599609375-5.94873046875t-0.794677734375-6.925048828125t-0.385986328125-7.015869140625t-0.113525390625-6.22119140625z M297.72022929688,178.47216796875q0-4.177734375,0.976318359375-8.196533203125t1.657470703125-8.014892578125q0.181640625-1.04443359375,1.430419921875-1.294189453125t2.111572265625-0.249755859375q1.49853515625,0,2.40673828125,0.4541015625q0.36328125,0.181640625,0.68115234375,0.40869140625t0.31787109375,0.59033203125q0,3.9052734375-0.930908203125,7.62890625t-0.930908203125,7.9013671875q0,1.40771484375,0.204345703125,2.656494140625t0.385986328125,2.474853515625l0.2724609375,1.31689453125q0,0.36328125,0.04541015625,0.6357421875t0.13623046875,0.6357421875q0,0.8173828125-1.157958984375,1.112548828125t-2.020751953125,0.295166015625q-1.31689453125,0-2.429443359375-0.522216796875t-1.748291015625-1.793701171875l-0.6357421875-1.31689453125q-0.544921875-1.04443359375-0.544921875-2.338623046875t-0.22705078125-2.384033203125z M300.62647929688,151.13525390625l0-0.86279296875q0-2.13427734375,1.067138671875-3.814453125t3.201416015625-1.68017578125q0.2724609375,0,0.522216796875,0.04541015625t0.522216796875,0.04541015625q0.544921875,0.0908203125,1.430419921875,0.431396484375t0.885498046875,1.067138671875l0,0.0908203125q-0.181640625,0.36328125-0.22705078125,0.749267578125t-0.22705078125,0.658447265625l0.0908203125-0.0908203125q-0.544921875,1.40771484375-0.885498046875,2.2705078125t-0.749267578125,1.385009765625t-1.021728515625,0.749267578125t-1.748291015625,0.22705078125q-0.181640625,0-0.6357421875-0.04541015625t-0.976318359375-0.181640625t-0.885498046875-0.36328125t-0.36328125-0.68115234375z M315.68766582031,162.66943359375q0-0.36328125,0.431396484375-0.658447265625t0.976318359375-0.431396484375t1.112548828125-0.181640625t0.840087890625-0.04541015625q2.04345703125,0,3.49658203125,1.81640625t2.520263671875,4.654541015625t1.81640625,6.2666015625t1.430419921875,6.834228515625t1.339599609375,6.243896484375t1.475830078125,4.382080078125q1.40771484375-2.77001953125,2.565673828125-6.67529296875t2.13427734375-8.0830078125t1.7255859375-8.241943359375t1.203369140625-7.106689453125q0.181640625-0.8173828125,1.13525390625-1.021728515625t1.58935546875-0.204345703125q1.04443359375,0,1.81640625,0.295166015625t0.77197265625,1.294189453125q0,1.68017578125-0.40869140625,4.563720703125t-1.112548828125,6.470947265625t-1.634765625,7.3564453125t-1.998046875,7.152099609375t-2.22509765625,5.994140625t-2.293212890625,3.700927734375q-0.544921875,0.6357421875-1.702880859375,0.885498046875t-1.929931640625,0.249755859375q-2.67919921875,0-4.4501953125-1.40771484375l0,0.0908203125q-2.77001953125-2.58837890625-4.0869140625-6.31201171875t-1.9072265625-7.76513671875t-1.067138671875-8.03759765625t-1.612060546875-7.265625q-0.181640625-0.36328125-0.4541015625-1.067138671875t-0.6357421875-1.40771484375t-0.613037109375-1.339599609375t-0.249755859375-0.9990234375z M351.50129375,181.423828125q0-3.1787109375,0.703857421875-7.49267578125t2.384033203125-8.173828125t4.427490234375-6.561767578125t6.925048828125-2.701904296875q3.9052734375,0,5.85791015625,2.247802734375t1.95263671875,6.062255859375q0,2.49755859375-0.930908203125,5.471923828125t-2.656494140625,5.630859375t-4.0869140625,4.427490234375t-5.267578125,1.77099609375l-1.1806640625-0.0908203125q0,1.22607421875,0.36328125,3.292236328125t1.067138671875,4.109619140625t1.81640625,3.58740234375t2.701904296875,1.5439453125q2.31591796875,0,4.4501953125-1.86181640625t4.04150390625-4.13232421875t3.5419921875-4.13232421875t2.9970703125-1.86181640625q0.7265625,0,1.49853515625,0.22705078125t0.86279296875,1.271484375q0,0.6357421875-0.340576171875,1.04443359375t-0.613037109375,0.908203125q-1.40771484375,2.40673828125-3.065185546875,4.58642578125t-3.746337890625,3.95068359375t-4.563720703125,2.792724609375t-5.471923828125,1.021728515625q-3.9052734375,0-6.49365234375-1.385009765625t-4.177734375-3.7236328125t-2.293212890625-5.40380859375t-0.703857421875-6.425537109375z M359.62971171875,177.97265625l1.271484375,1.13525390625q0.908203125,0.8173828125,1.81640625,0.36328125t1.634765625-1.657470703125t1.339599609375-2.974365234375t1.08984375-3.6328125t0.703857421875-3.6328125t0.22705078125-2.95166015625l0-1.5439453125t-0.13623046875-1.634765625t-0.476806640625-1.294189453125t-1.067138671875-0.658447265625q-0.22705078125-0.04541015625-0.40869140625-0.04541015625q-1.5439453125,0-2.6337890625,1.95263671875q-1.1806640625,2.1796875-1.9072265625,5.290283203125t-1.04443359375,6.380126953125t-0.40869140625,4.904296875z M406.23597148437,154.6318359375l0.2724609375-0.544921875q0.7265625-0.6357421875,2.22509765625-1.9072265625t3.26953125-2.883544921875t3.67822265625-3.383056640625t3.428466796875-3.451171875t2.49755859375-3.156005859375t0.976318359375-2.520263671875q0-0.544921875,0.522216796875-0.976318359375t1.1806640625-0.703857421875t1.339599609375-0.36328125t1.1806640625-0.0908203125q1.04443359375,0,2.384033203125,0.31787109375t1.793701171875,1.5439453125q-1.04443359375,9.03662109375-1.929931640625,17.732666015625t-0.885498046875,17.687255859375q0,6.13037109375,0.749267578125,12.238037109375t0.749267578125,12.056396484375q0,0.7265625-0.658447265625,1.157958984375t-1.475830078125,0.658447265625t-1.702880859375,0.31787109375t-1.385009765625,0.0908203125q-2.13427734375,0-3.156005859375-0.749267578125t-1.430419921875-1.9072265625t-0.40869140625-2.6337890625t-0.0908203125-3.065185546875q-0.181640625-3.26953125-0.340576171875-6.470947265625t-0.158935546875-6.470947265625q0-7.447265625,0.385986328125-14.826416015625t1.566650390625-14.735595703125q-1.04443359375,1.04443359375-2.474853515625,2.429443359375t-3.087890625,2.67919921875t-3.383056640625,2.1796875t-3.22412109375,0.885498046875q-0.4541015625,0-1.385009765625-0.181640625t-1.021728515625-0.95361328125z M441.23221660156,193.91162109375q0-1.13525390625,0.13623046875-2.293212890625t0.13623046875-2.293212890625l0-0.7265625q0-1.40771484375,1.157958984375-1.77099609375t2.384033203125-0.36328125q1.40771484375,0,2.701904296875,0.59033203125t1.294189453125,2.2705078125q0.2724609375,0.8173828125,0.2724609375,1.95263671875l0,2.13427734375q0,1.58935546875-1.112548828125,2.202392578125t-2.974365234375,0.613037109375q-1.31689453125,0-2.656494140625-0.476806640625t-1.339599609375-1.839111328125z M459.6537546875,160.8076171875q0-4.177734375,0.431396484375-8.832275390625t2.066162109375-8.605224609375t4.745361328125-6.561767578125t8.514404296875-2.611083984375q1.86181640625,0,3.99609375,0.59033203125t2.95166015625,2.4521484375q4.2685546875,1.04443359375,6.970458984375,3.882568359375t4.200439453125,6.561767578125t1.998046875,7.9013671875t0.49951171875,7.9013671875q0,2.67919921875-0.31787109375,6.22119140625t-1.067138671875,7.1748046875t-2.0888671875,7.106689453125t-3.292236328125,6.22119140625t-4.699951171875,4.427490234375t-6.380126953125,1.68017578125q-3.99609375,0-6.970458984375-1.81640625t-5.017822265625-4.745361328125t-3.31494140625-6.743408203125t-1.998046875-7.76513671875t-0.976318359375-7.7197265625t-0.249755859375-6.720703125z M467.87299296875,157.9921875q0,5.94873046875,0.7265625,12.328857421875t2.90625,11.965576171875q1.13525390625-5.49462890625,2.474853515625-10.67138671875t2.67919921875-10.194580078125t2.6337890625-9.990234375t2.338623046875-9.967529296875l-0.36328125-0.22705078125q-0.908203125,0.181640625-2.22509765625,0.04541015625t-1.49853515625-1.31689453125q-0.7265625-0.0908203125-1.58935546875-0.567626953125t-0.36328125-2.247802734375q-1.77099609375,0-3.04248046875,1.22607421875t-2.0888671875,3.13330078125t-1.339599609375,4.2685546875t-0.794677734375,4.67724609375t-0.36328125,4.31396484375t-0.0908203125,3.22412109375z M475.0023875,189.3251953125q0.2724609375,0.4541015625,0.658447265625,0.976318359375t0.794677734375,0.9990234375t0.885498046875,0.794677734375t1.021728515625,0.22705078125q2.40673828125-0.36328125,4.13232421875-2.0888671875t2.883544921875-4.336669921875t1.81640625-5.8125t0.976318359375-6.4482421875t0.40869140625-6.289306640625t0.0908203125-5.267578125q0-4.177734375-0.68115234375-8.2646484375t-2.6337890625-7.7197265625q-2.67919921875,10.8076171875-4.881591796875,21.819580078125t-5.471923828125,21.410888671875z"/></svg>
