<?xml version="1.0"?>
<svg version="1.1" xmlns="http://www.w3.org/2000/svg" width="300" height="50" style=""><path fill="#090e12" d="M29.88,43l3.03,0l-13.41-10.71l13.41-10.32l-3.03,0l-11.52,9.18l0-9.18l-1.89,0l0,21.03l1.89,0l0-9.18z M37.2552,43l1.86,0l0-12.72q0-2.52,1.92-4.5q1.92-1.92,4.44-1.92t4.5,1.92q1.92,1.98,1.92,4.5l0,12.72l1.86,0l0-12.72q0-3.42-2.43-5.85t-5.85-2.43q-3.36,0-5.79,2.43t-2.43,5.85l0,12.72z M66.4104,22q-3.39,0-5.82,2.43q-2.46,2.46-2.46,5.85l0,4.53q0,3.33,2.46,5.79t5.82,2.46q3.39,0,5.85-2.46q2.43-2.43,2.43-5.79l0-4.53q0-3.42-2.43-5.85t-5.85-2.43z M72.8304,30.28l0,4.53q0,2.73-1.92,4.59q-1.89,1.8-4.5,1.8t-4.47-1.8q-1.92-1.86-1.92-4.59l0-4.53q0-2.52,1.92-4.5q1.92-1.92,4.47-1.92q2.52,0,4.5,1.92q1.92,1.98,1.92,4.5z M88.7256,32.53l7.14-10.56l-2.28,0l-6,9l-6.36-9l-1.92,0l7.14,10.56l-7.5,10.5l2.28,0l6.36-9l6,9l1.92,0z"/><path fill="#202226" d="M105.0543546875,19.6240234375q0-1.025390625,0.3515625-1.376953125t0.9814453125-0.3515625q0.17578125,0,0.37353515625,0.029296875t0.37353515625,0.087890625q0.9814453125-0.1904296875,1.8603515625-0.1904296875q1.4208984375,0,2.578125,0.498046875q1.8603515625,0.791015625,3.076171875,2.34375t1.787109375,3.6474609375t0.5712890625,4.2919921875q0,1.23046875-0.16845703125,2.5634765625t-0.65185546875,2.4755859375q-0.4248046875,1.025390625-1.171875,2.14599609375t-1.69189453125,2.1240234375t-2.0361328125,1.7578125t-2.20458984375,1.01806640625l0,0.1171875q0,0.29296875-0.15380859375,0.47607421875t-0.37353515625,0.2783203125t-0.50537109375,0.12451171875t-0.53466796875,0.029296875q-0.146484375,0-0.41748046875-0.029296875t-0.52734375-0.10986328125t-0.43212890625-0.21240234375t-0.17578125-0.3662109375q0-2.666015625-0.13916015625-5.33935546875t-0.31494140625-5.3466796875t-0.31494140625-5.33935546875t-0.13916015625-5.3466796875z M107.822909375,18.876953125q0.146484375,1.40625,0.1904296875,2.80517578125t0.1318359375,2.80517578125q0.234375,3.6328125,0.5419921875,7.22900390625t0.3662109375,7.22900390625q1.40625-0.9228515625,2.40966796875-2.109375t1.64794921875-2.578125t0.94482421875-2.92236328125t0.30029296875-3.15673828125q0-1.171875-0.205078125-2.578125t-0.703125-2.7099609375t-1.34033203125-2.3583984375t-2.10205078125-1.5087890625q-0.263671875-0.087890625-0.63720703125-0.146484375t-1.19384765625-0.05859375q-0.087890625,0-0.17578125,0.029296875t-0.17578125,0.029296875z M119.99092695313,30.4345703125q0-0.6005859375,0.21240234375-1.0107421875t0.90087890625-0.41015625q0.263671875,0,0.6591796875,0.08056640625t0.4541015625,0.40283203125q0.146484375,0.8642578125,0.1611328125,1.875t0.1025390625,1.904296875q0.3369140625-0.6591796875,0.8642578125-1.4208984375t1.201171875-1.40625t1.46484375-1.0693359375t1.611328125-0.4248046875q0.05859375,0,0.2197265625,0.0439453125t0.30029296875,0.12451171875t0.16845703125,0.18310546875t-0.1611328125,0.1904296875q-0.05859375,0.17578125-0.2490234375,0.21240234375t-0.3369140625,0.03662109375q-0.087890625,0-0.2783203125-0.0732421875q-1.083984375,0.5712890625-1.845703125,1.552734375t-1.2451171875,2.17529296875t-0.703125,2.51953125t-0.2197265625,2.58544921875q0,0.6298828125-0.28564453125,0.76171875t-0.91552734375,0.1318359375q-0.3369140625,0-0.71044921875-0.0732421875t-0.52001953125-0.46875q-0.263671875-0.8349609375-0.43212890625-1.9189453125t-0.25634765625-2.23388671875t-0.12451171875-2.26318359375t-0.03662109375-2.0068359375z M130.40113203125,34.1845703125q0-1.34765625,0.31494140625-2.64404296875t0.53466796875-2.58544921875q0.05859375-0.3369140625,0.46142578125-0.41748046875t0.68115234375-0.08056640625q0.4833984375,0,0.7763671875,0.146484375q0.1171875,0.05859375,0.2197265625,0.1318359375t0.1025390625,0.1904296875q0,1.259765625-0.30029296875,2.4609375t-0.30029296875,2.548828125q0,0.4541015625,0.06591796875,0.85693359375t0.12451171875,0.79833984375l0.087890625,0.4248046875q0,0.1171875,0.0146484375,0.205078125t0.0439453125,0.205078125q0,0.263671875-0.37353515625,0.35888671875t-0.65185546875,0.09521484375q-0.4248046875,0-0.78369140625-0.16845703125t-0.56396484375-0.57861328125l-0.205078125-0.4248046875q-0.17578125-0.3369140625-0.17578125-0.75439453125t-0.0732421875-0.76904296875z M131.33863203125,25.3662109375l0-0.2783203125q0-0.6884765625,0.34423828125-1.23046875t1.03271484375-0.5419921875q0.087890625,0,0.16845703125,0.0146484375t0.16845703125,0.0146484375q0.17578125,0.029296875,0.46142578125,0.13916015625t0.28564453125,0.34423828125l0,0.029296875q-0.05859375,0.1171875-0.0732421875,0.24169921875t-0.0732421875,0.21240234375l0.029296875-0.029296875q-0.17578125,0.4541015625-0.28564453125,0.732421875t-0.24169921875,0.44677734375t-0.32958984375,0.24169921875t-0.56396484375,0.0732421875q-0.05859375,0-0.205078125-0.0146484375t-0.31494140625-0.05859375t-0.28564453125-0.1171875t-0.1171875-0.2197265625z M136.19707929688,29.0869140625q0-0.1171875,0.13916015625-0.21240234375t0.31494140625-0.13916015625t0.35888671875-0.05859375t0.27099609375-0.0146484375q0.6591796875,0,1.1279296875,0.5859375t0.81298828125,1.50146484375t0.5859375,2.021484375t0.46142578125,2.20458984375t0.43212890625,2.01416015625t0.47607421875,1.41357421875q0.4541015625-0.8935546875,0.82763671875-2.1533203125t0.6884765625-2.607421875t0.556640625-2.65869140625t0.38818359375-2.29248046875q0.05859375-0.263671875,0.3662109375-0.32958984375t0.5126953125-0.06591796875q0.3369140625,0,0.5859375,0.09521484375t0.2490234375,0.41748046875q0,0.5419921875-0.1318359375,1.47216796875t-0.35888671875,2.08740234375t-0.52734375,2.373046875t-0.64453125,2.30712890625t-0.7177734375,1.93359375t-0.73974609375,1.19384765625q-0.17578125,0.205078125-0.54931640625,0.28564453125t-0.62255859375,0.08056640625q-0.8642578125,0-1.435546875-0.4541015625l0,0.029296875q-0.8935546875-0.8349609375-1.318359375-2.0361328125t-0.615234375-2.5048828125t-0.34423828125-2.5927734375t-0.52001953125-2.34375q-0.05859375-0.1171875-0.146484375-0.34423828125t-0.205078125-0.4541015625t-0.19775390625-0.43212890625t-0.08056640625-0.322265625z M147.7498625,35.13671875q0-1.025390625,0.22705078125-2.4169921875t0.76904296875-2.63671875t1.42822265625-2.11669921875t2.23388671875-0.87158203125q1.259765625,0,1.8896484375,0.72509765625t0.6298828125,1.95556640625q0,0.8056640625-0.30029296875,1.76513671875t-0.85693359375,1.81640625t-1.318359375,1.42822265625t-1.69921875,0.5712890625l-0.380859375-0.029296875q0,0.3955078125,0.1171875,1.06201171875t0.34423828125,1.32568359375t0.5859375,1.1572265625t0.87158203125,0.498046875q0.7470703125,0,1.435546875-0.6005859375t1.3037109375-1.3330078125t1.142578125-1.3330078125t0.966796875-0.6005859375q0.234375,0,0.4833984375,0.0732421875t0.2783203125,0.41015625q0,0.205078125-0.10986328125,0.3369140625t-0.19775390625,0.29296875q-0.4541015625,0.7763671875-0.98876953125,1.4794921875t-1.20849609375,1.2744140625t-1.47216796875,0.90087890625t-1.76513671875,0.32958984375q-1.259765625,0-2.0947265625-0.44677734375t-1.34765625-1.201171875t-0.73974609375-1.7431640625t-0.22705078125-2.07275390625z M150.3719328125,34.0234375l0.41015625,0.3662109375q0.29296875,0.263671875,0.5859375,0.1171875t0.52734375-0.53466796875t0.43212890625-0.95947265625t0.3515625-1.171875t0.22705078125-1.171875t0.0732421875-0.9521484375l0-0.498046875t-0.0439453125-0.52734375t-0.15380859375-0.41748046875t-0.34423828125-0.21240234375q-0.0732421875-0.0146484375-0.1318359375-0.0146484375q-0.498046875,0-0.849609375,0.6298828125q-0.380859375,0.703125-0.615234375,1.70654296875t-0.3369140625,2.05810546875t-0.1318359375,1.58203125z M165.40621015625,26.494140625l0.087890625-0.17578125q0.234375-0.205078125,0.7177734375-0.615234375t1.0546875-0.93017578125t1.1865234375-1.09130859375t1.10595703125-1.11328125t0.8056640625-1.01806640625t0.31494140625-0.81298828125q0-0.17578125,0.16845703125-0.31494140625t0.380859375-0.22705078125t0.43212890625-0.1171875t0.380859375-0.029296875q0.3369140625,0,0.76904296875,0.1025390625t0.57861328125,0.498046875q-0.3369140625,2.9150390625-0.62255859375,5.72021484375t-0.28564453125,5.70556640625q0,1.9775390625,0.24169921875,3.94775390625t0.24169921875,3.88916015625q0,0.234375-0.21240234375,0.37353515625t-0.47607421875,0.21240234375t-0.54931640625,0.1025390625t-0.44677734375,0.029296875q-0.6884765625,0-1.01806640625-0.24169921875t-0.46142578125-0.615234375t-0.1318359375-0.849609375t-0.029296875-0.98876953125q-0.05859375-1.0546875-0.10986328125-2.08740234375t-0.05126953125-2.08740234375q0-2.40234375,0.12451171875-4.78271484375t0.50537109375-4.75341796875q-0.3369140625,0.3369140625-0.79833984375,0.78369140625t-0.99609375,0.8642578125t-1.09130859375,0.703125t-1.0400390625,0.28564453125q-0.146484375,0-0.44677734375-0.05859375t-0.32958984375-0.3076171875z M176.69532148438,39.1650390625q0-0.3662109375,0.0439453125-0.73974609375t0.0439453125-0.73974609375l0-0.234375q0-0.4541015625,0.37353515625-0.5712890625t0.76904296875-0.1171875q0.4541015625,0,0.87158203125,0.1904296875t0.41748046875,0.732421875q0.087890625,0.263671875,0.087890625,0.6298828125l0,0.6884765625q0,0.5126953125-0.35888671875,0.71044921875t-0.95947265625,0.19775390625q-0.4248046875,0-0.85693359375-0.15380859375t-0.43212890625-0.59326171875z M182.637753125,28.486328125q0-1.34765625,0.13916015625-2.84912109375t0.66650390625-2.77587890625t1.53076171875-2.11669921875t2.74658203125-0.84228515625q0.6005859375,0,1.2890625,0.1904296875t0.9521484375,0.791015625q1.376953125,0.3369140625,2.24853515625,1.25244140625t1.35498046875,2.11669921875t0.64453125,2.548828125t0.1611328125,2.548828125q0,0.8642578125-0.1025390625,2.0068359375t-0.34423828125,2.314453125t-0.673828125,2.29248046875t-1.06201171875,2.0068359375t-1.51611328125,1.42822265625t-2.05810546875,0.5419921875q-1.2890625,0-2.24853515625-0.5859375t-1.61865234375-1.53076171875t-1.0693359375-2.17529296875t-0.64453125-2.5048828125t-0.31494140625-2.490234375t-0.08056640625-2.16796875z M185.2891203125,27.578125q0,1.9189453125,0.234375,3.97705078125t0.9375,3.85986328125q0.3662109375-1.7724609375,0.79833984375-3.4423828125t0.8642578125-3.28857421875t0.849609375-3.22265625t0.75439453125-3.21533203125l-0.1171875-0.0732421875q-0.29296875,0.05859375-0.7177734375,0.0146484375t-0.4833984375-0.4248046875q-0.234375-0.029296875-0.5126953125-0.18310546875t-0.1171875-0.72509765625q-0.5712890625,0-0.9814453125,0.3955078125t-0.673828125,1.0107421875t-0.43212890625,1.376953125t-0.25634765625,1.5087890625t-0.1171875,1.3916015625t-0.029296875,1.0400390625z M187.588925,37.685546875q0.087890625,0.146484375,0.21240234375,0.31494140625t0.25634765625,0.322265625t0.28564453125,0.25634765625t0.32958984375,0.0732421875q0.7763671875-0.1171875,1.3330078125-0.673828125t0.93017578125-1.39892578125t0.5859375-1.875t0.31494140625-2.080078125t0.1318359375-2.02880859375t0.029296875-1.69921875q0-1.34765625-0.2197265625-2.666015625t-0.849609375-2.490234375q-0.8642578125,3.486328125-1.57470703125,7.03857421875t-1.76513671875,6.90673828125z"/></svg>
