<?xml version="1.0" standalone="no"?>
<!DOCTYPE svg PUBLIC "-//W3C//DTD SVG 20010904//EN"
 "http://www.w3.org/TR/2001/REC-SVG-20010904/DTD/svg10.dtd">
<svg version="1.0" xmlns="http://www.w3.org/2000/svg"
 width="200.000000pt" height="69.000000pt" viewBox="0 0 200.000000 69.000000"
 preserveAspectRatio="xMidYMid meet">

<g transform="translate(0.000000,69.000000) scale(0.100000,-0.100000)"
fill="#000000" stroke="none">
<path d="M780 430 c0 -40 4 -70 10 -70 6 0 10 8 10 18 0 9 5 24 10 32 9 12 15
9 39 -20 35 -41 54 -33 23 10 -27 36 -27 38 0 67 34 36 12 40 -25 5 -41 -40
-47 -40 -47 -2 0 17 -4 30 -10 30 -6 0 -10 -30 -10 -70z"/>
<path d="M910 414 c0 -30 5 -54 10 -54 6 0 10 13 10 29 0 42 9 61 30 61 15 0
20 -9 22 -42 4 -50 22 -57 26 -11 5 51 -12 72 -58 71 l-40 0 0 -54z"/>
<path d="M1050 455 c-7 -8 -12 -26 -12 -40 0 -34 19 -55 52 -55 33 0 53 21 53
55 0 34 -20 55 -53 55 -15 0 -33 -7 -40 -15z m65 -40 c0 -25 -4 -30 -25 -30
-16 0 -26 6 -28 18 -6 30 6 49 30 45 18 -2 23 -9 23 -33z"/>
<path d="M1160 463 c0 -5 7 -17 15 -27 13 -17 13 -23 -1 -44 -19 -29 -11 -41
14 -19 17 15 19 15 35 0 23 -23 33 -9 14 20 -14 22 -14 27 0 46 19 28 9 40
-16 17 -16 -15 -19 -15 -31 -1 -13 16 -30 20 -30 8z"/>
<path d="M1138 224 c-5 -4 -8 -38 -8 -76 l0 -68 43 0 c30 0 49 6 60 18 20 22
22 81 4 106 -13 18 -87 33 -99 20z m80 -36 c15 -15 15 -61 0 -76 -7 -7 -22
-12 -35 -12 -21 0 -23 4 -23 50 0 46 2 50 23 50 13 0 28 -5 35 -12z"/>
<path d="M1371 150 c-1 -43 2 -70 9 -70 6 0 10 28 10 70 0 39 -4 70 -9 70 -4
0 -9 -31 -10 -70z"/>
<path d="M1724 205 c-19 -14 -19 -15 4 -21 19 -5 22 -13 22 -55 0 -27 5 -49
10 -49 6 0 10 30 10 70 0 75 -8 84 -46 55z"/>
<path d="M1860 201 c-39 -74 38 -164 84 -99 34 49 8 118 -44 118 -19 0 -33 -7
-40 -19z m68 -45 c3 -36 -8 -55 -31 -56 -16 0 -28 54 -17 78 16 37 44 24 48
-22z"/>
<path d="M1563 189 c-30 -11 -40 -53 -19 -84 17 -26 49 -32 76 -15 15 10 13
11 -29 13 -39 3 -38 27 2 27 41 0 49 7 36 31 -14 27 -41 38 -66 28z m42 -29
c4 -6 -5 -10 -19 -10 -14 0 -26 5 -26 10 0 6 9 10 19 10 11 0 23 -4 26 -10z"/>
<path d="M1280 135 c0 -64 17 -75 22 -13 2 34 8 45 28 55 24 12 24 13 -12 13
l-38 0 0 -55z"/>
<path d="M1420 178 c1 -21 38 -98 48 -98 5 0 12 8 15 18 3 9 12 34 21 55 10
24 12 37 5 37 -6 0 -16 -13 -22 -30 -6 -16 -15 -30 -20 -30 -4 0 -13 14 -18
30 -11 30 -29 41 -29 18z"/>
<path d="M1800 90 c0 -5 5 -10 10 -10 6 0 10 5 10 10 0 6 -4 10 -10 10 -5 0
-10 -4 -10 -10z"/>
</g>
</svg>
